# xmcd CD database file
#
# Track frame offsets:
#	150
#	19553
#	37719
#	55662
#	67324
#	84408
#	98911
#	113307
#	123842
#	144111
#
# Disc length: 2123 seconds
#
# Revision: 0
# Processed by: cddbd v1.5.2PL0 Copyright (c) Steve Scherf et al.
# Submitted via: CDex 1.70beta3
#
DISCID=6d08490a
DTITLE=Paul Smith - Softly Baby (Capitol T289)
DYEAR=1957
DGENRE=Jazz
TTITLE0=Softly
TTITLE1=Taking A Chance on Love
TTITLE2=Easy to Love
TTITLE3=Long Live Phineas
TTITLE4=I Didn't Know What Time It Was
TTITLE5=I'll Remember April
TTITLE6=Invitation
TTITLE7=I Got Rhythm
TTITLE8=The Man I Love
TTITLE9=Blues A La P.T.
EXTD=YEAR: 1957
EXTT0=
EXTT1=
EXTT2=
EXTT3=
EXTT4=
EXTT5=
EXTT6=
EXTT7=
EXTT8=
EXTT9=
PLAYORDER=
